# xmcd CD database file
#
# Track frame offsets:
#	150
#	21325
#	37767
#	61647
#
# Disc length: 1102 seconds
#
# Revision: 0
# Processed by: cddbd v1.5.1PL2 Copyright (c) Steve Scherf et al.
# Submitted via: CDex 1.50beta8
#
DISCID=23044c04
DTITLE=福田沙紀 - 幸せのテレパシー
DYEAR=2005
DGENRE=J-Pop
TTITLE0=幸せのテレパシー
TTITLE1=37℃
TTITLE2=花束を下さい -2005 winter version-
TTITLE3=幸せのテレパシー -instrumental-
EXTD=YEAR: 2005
EXTT0=
EXTT1=
EXTT2=
EXTT3=
PLAYORDER=
